<?xml version="1.0" encoding="UTF-8" standalone="no"?>
<svg
   xmlns:dc="http://purl.org/dc/elements/1.1/"
   xmlns:cc="http://creativecommons.org/ns#"
   xmlns:rdf="http://www.w3.org/1999/02/22-rdf-syntax-ns#"
   xmlns:svg="http://www.w3.org/2000/svg"
   xmlns="http://www.w3.org/2000/svg"
   xmlns:sodipodi="http://sodipodi.sourceforge.net/DTD/sodipodi-0.dtd"
   xmlns:inkscape="http://www.inkscape.org/namespaces/inkscape"
   aria-hidden="true"
   focusable="false"
   data-prefix="fas"
   data-icon="file-alt"
   class="svg-inline--fa fa-file-alt fa-w-12"
   role="img"
   viewBox="0 0 384 512"
   version="1.1"
   id="svg4"
   sodipodi:docname="document.svg"
   inkscape:version="0.92.5 (2060ec1f9f, 2020-04-08)">
  <metadata
     id="metadata10">
    <rdf:RDF>
      <cc:Work
         rdf:about="">
        <dc:format>image/svg+xml</dc:format>
        <dc:type
           rdf:resource="http://purl.org/dc/dcmitype/StillImage" />
        <dc:title></dc:title>
      </cc:Work>
    </rdf:RDF>
  </metadata>
  <defs
     id="defs8" />
  <sodipodi:namedview
     pagecolor="#ffffff"
     bordercolor="#666666"
     borderopacity="1"
     objecttolerance="10"
     gridtolerance="10"
     guidetolerance="10"
     inkscape:pageopacity="0"
     inkscape:pageshadow="2"
     inkscape:window-width="1920"
     inkscape:window-height="1017"
     id="namedview6"
     showgrid="false"
     inkscape:zoom="0.4609375"
     inkscape:cx="192"
     inkscape:cy="256"
     inkscape:window-x="1672"
     inkscape:window-y="-8"
     inkscape:window-maximized="1"
     inkscape:current-layer="svg4" />
  <path
     fill="currentColor"
     d="M224 136V0H24C10.7 0 0 10.7 0 24v464c0 13.3 10.7 24 24 24h336c13.3 0 24-10.7 24-24V160H248c-13.2 0-24-10.8-24-24zm64 236c0 6.6-5.4 12-12 12H108c-6.6 0-12-5.4-12-12v-8c0-6.6 5.4-12 12-12h168c6.6 0 12 5.4 12 12v8zm0-64c0 6.6-5.4 12-12 12H108c-6.6 0-12-5.4-12-12v-8c0-6.6 5.4-12 12-12h168c6.6 0 12 5.4 12 12v8zm0-72v8c0 6.6-5.4 12-12 12H108c-6.6 0-12-5.4-12-12v-8c0-6.6 5.4-12 12-12h168c6.6 0 12 5.4 12 12zm96-114.1v6.1H256V0h6.1c6.4 0 12.5 2.5 17 7l97.9 98c4.5 4.5 7 10.6 7 16.9z"
     id="path2" />
  <path
     style="fill:#6597ee;fill-opacity:1;stroke:#67bf95;stroke-width:3.41477966;stroke-miterlimit:4;stroke-dasharray:none;stroke-dashoffset:0;stroke-opacity:1"
     d="M 15.186441,509.10108 C 12.8,508.11342 8.8949153,505.13525 6.5084746,502.48292 2.2319223,497.72987 2.161285,494.19611 1.5991287,256.88535 L 1.0287659,16.110217 8.433027,8.705956 15.837288,1.3016949 H 119.10508 222.37288 V 69.71036 c 0,74.66524 0.68185,79.53502 12.193,87.08361 5.49066,3.60057 12.59592,4.02538 77.23724,4.61783 l 71.19034,0.65247 -0.58148,167.97683 -0.58147,167.97685 -6.01481,6.01474 -6.01481,6.01477 -175.13773,0.42468 C 98.337406,510.7057 17.572881,510.08872 15.186441,509.10108 Z M 283.93264,382.5137 c 6.21976,-4.54799 6.99455,-18.86652 1.40461,-25.95777 l -4.70302,-5.9661 H 191.9975 c -95.233108,0 -93.016562,-0.2535 -96.603812,11.04892 -2.11072,6.65029 0.770406,18.88375 5.032532,21.36851 5.9636,3.47668 178.71221,3.01206 183.50642,-0.49356 z m 2.31723,-67.11847 c 4.32486,-6.17461 4.32486,-16.72433 0,-22.89894 l -3.37727,-4.82171 H 192 101.12739 l -3.377253,4.82171 c -1.85749,2.65192 -3.377256,7.80421 -3.377256,11.44947 0,3.64527 1.519766,8.79755 3.377256,11.44947 l 3.377253,4.82172 H 192 282.8726 Z m -2.31723,-60.88153 c 6.21976,-4.54799 6.99455,-18.86652 1.40461,-25.95777 l -4.70302,-5.9661 H 191.9975 c -95.233108,0 -93.016562,-0.2535 -96.603812,11.04892 -2.11072,6.65029 0.770406,18.88375 5.032532,21.36851 5.9636,3.47668 178.71221,3.01206 183.50642,-0.49356 z"
     id="path817"
     inkscape:connector-curvature="0" />
  <path
     style="fill:#6597ee;fill-opacity:1;stroke:#6597ee;stroke-width:3.41477966;stroke-miterlimit:4;stroke-dasharray:none;stroke-dashoffset:0;stroke-opacity:1"
     d="M 257.08475,64.216949 V 1.3016949 h 7.00435 c 6.2653,0 12.90377,5.8994079 62.91526,55.9108971 50.01149,50.011488 55.91089,56.649958 55.91089,62.915258 v 7.00435 H 320 257.08475 Z"
     id="path819"
     inkscape:connector-curvature="0" />
  <path
     style="fill:#6597ee;fill-opacity:1;stroke:#6597ee;stroke-width:3.41477966;stroke-miterlimit:4;stroke-dasharray:none;stroke-dashoffset:0;stroke-opacity:1"
     d="M 40.135593,507.02746 C 26.413559,506.30203 13.233898,504.55808 10.847458,503.15203 6.7419425,500.73316 6.4342799,497.52296 5.129574,443.49102 4.3711787,412.0835 3.6389753,303.35084 3.5024553,201.86287 L 3.2542373,17.3393 10.408368,10.405243 17.562499,3.4711864 H 118.70123 219.83996 l 0.72409,70.0654996 c 0.64618,62.527004 1.13581,70.693454 4.55092,75.901984 8.64002,13.17735 8.73611,13.19329 85.59991,14.20172 l 70.4161,0.92384 -0.73498,166.71611 -0.73498,166.71611 -4.87967,4.8788 -4.87966,4.87882 -152.40847,0.2962 c -83.82466,0.1629 -163.635593,-0.29735 -177.357627,-1.02281 z M 286.83947,382.51236 c 5.13923,-5.14148 5.01535,-20.28206 -0.23011,-28.12592 l -3.98974,-5.9661 -84.90303,0.013 c -91.28884,0.013 -99.960916,0.85319 -103.447022,10.02233 -4.735403,12.45505 -0.197619,24.89917 9.924532,27.2164 3.54748,0.81211 45.22264,1.30528 92.61147,1.09592 79.52478,-0.35135 86.45978,-0.67907 90.0339,-4.25474 z m 1.23514,-66.42675 c 4.73127,-8.0094 4.73127,-16.2703 0,-24.27969 l -3.722,-6.30084 H 192 99.647382 l -3.721995,6.30084 c -2.0471,3.46546 -3.721997,8.92839 -3.721997,12.13984 0,3.21146 1.674897,8.67439 3.721997,12.13985 l 3.721995,6.30083 H 192 284.35261 Z m -1.23514,-61.57325 c 5.13923,-5.14148 5.01535,-20.28206 -0.23011,-28.12592 l -3.98974,-5.9661 -84.90303,0.013 c -91.28884,0.013 -99.960916,0.85319 -103.447022,10.02233 -4.735403,12.45505 -0.197619,24.89917 9.924532,27.2164 3.54748,0.81211 45.22264,1.30528 92.61147,1.09592 79.52478,-0.35135 86.45978,-0.67907 90.0339,-4.25474 z"
     id="path821"
     inkscape:connector-curvature="0" />
  <path
     style="fill:#6597ee;fill-opacity:1;stroke:#6597ee;stroke-width:3.41477966;stroke-miterlimit:4;stroke-dasharray:none;stroke-dashoffset:0;stroke-opacity:1"
     d="M 21.073697,506.90773 C 2.7842376,503.93413 4.5123582,527.67369 2.9374614,257.76668 L 1.5359397,17.572881 9.3438566,9.4372881 17.151773,1.3016949 H 118.67758 c 55.8392,0 101.63094,0.7322034 101.75946,1.6271187 0.12844,0.8949152 0.86071,33.5791034 1.62712,72.6315284 l 1.39347,71.004408 5.71919,5.71632 c 7.91042,7.90646 18.04715,9.35896 66.07891,9.46851 22.78387,0.052 51.79707,0.7291 64.47378,1.50473 l 23.04857,1.41024 -1.2963,167.26772 c -1.27518,164.54079 -1.36866,167.34731 -5.73333,172.14909 l -4.437,4.88135 -170.46928,-0.27155 C 107.08406,508.5419 26.188249,507.73927 21.073697,506.90773 Z M 286.54946,380.00568 c 4.00969,-5.4866 3.91372,-14.99763 -0.23229,-23.01511 l -3.30995,-6.40074 h -85.11115 c -82.98302,0 -97.913415,1.02921 -101.710314,7.01121 -3.45242,5.43929 -1.952607,18.88295 2.616361,23.45192 4.338303,4.33831 6.279333,4.41626 94.549453,3.79661 86.31491,-0.60591 90.25015,-0.81043 93.19789,-4.84389 z m 0.55992,-65.31453 c 3.20171,-7.02699 3.20171,-14.46379 0,-21.49077 l -2.51772,-5.5258 H 192 99.408336 l -2.517727,5.5258 c -1.38475,3.0392 -2.517728,7.87462 -2.517728,10.74538 0,2.87076 1.132978,7.70619 2.517728,10.74539 l 2.517727,5.5258 H 192 284.59166 Z m -0.55992,-62.68547 c 4.00969,-5.4866 3.91372,-14.99763 -0.23229,-23.01511 l -3.30995,-6.40074 h -85.11115 c -82.98302,0 -97.913415,1.02921 -101.710314,7.01121 -3.45242,5.43929 -1.952607,18.88295 2.616361,23.45192 4.338303,4.33831 6.279333,4.41626 94.549453,3.79661 86.31491,-0.60591 90.25015,-0.81043 93.19789,-4.84389 z"
     id="path823"
     inkscape:connector-curvature="0" />
  <path
     style="fill:#6597ee;fill-opacity:1;stroke:#6597ee;stroke-width:3.41477966;stroke-miterlimit:4;stroke-dasharray:none;stroke-dashoffset:0;stroke-opacity:1"
     d="M 257.08475,65.301695 V 1.3016949 h 6.96303 c 6.2114,0 13.00287,6.0398334 62.91526,55.9522191 53.04543,53.045436 55.95221,56.370316 55.95221,63.999996 v 8.04778 H 320 257.08475 Z"
     id="path825"
     inkscape:connector-curvature="0" />
  <path
     style="fill:#6597ee;fill-opacity:1;stroke:#6597ee;stroke-width:3.41477966;stroke-miterlimit:4;stroke-dasharray:none;stroke-dashoffset:0;stroke-opacity:1"
     d="M 254.91525,64.216949 V -0.86779661 h 6.30189 c 7.94581,0 32.82792,21.87793961 81.04396,71.25902361 35.24535,36.096983 42.80159,45.632223 42.81554,54.029113 l 0.008,4.88135 H 320 254.91525 Z"
     id="path827"
     inkscape:connector-curvature="0" />
  <path
     style="fill:#6597ee;fill-opacity:1;stroke:#6597ee;stroke-width:3.41477966;stroke-miterlimit:4;stroke-dasharray:none;stroke-dashoffset:0;stroke-opacity:1"
     d="M 254.91525,65.301695 V -0.86779661 h 6.31366 c 8.98913,0 23.15597,11.82486961 67.69643,56.50530761 46.75577,46.902699 56.15941,58.361879 56.15941,68.435269 v 7.39841 H 320 254.91525 Z"
     id="path829"
     inkscape:connector-curvature="0" />
  <path
     style="fill:#6597ee;fill-opacity:1;stroke:#6597ee;stroke-width:3.41477966;stroke-miterlimit:4;stroke-dasharray:none;stroke-dashoffset:0;stroke-opacity:1"
     d="m 253.25678,64.788317 c 0.64307,-74.7428048 -0.0751,-71.8972305 16.21667,-64.25320584 9.02293,4.23352064 93.05284,85.80355684 106.77919,103.65336884 4.65727,6.05633 9.14653,14.67254 9.97613,19.14711 l 1.50836,8.1356 h -67.52704 -67.52703 z"
     id="path831"
     inkscape:connector-curvature="0" />
  <path
     style="fill:#6597ee;fill-opacity:1;stroke:#6597ee;stroke-width:3.41477966;stroke-miterlimit:4;stroke-dasharray:none;stroke-dashoffset:0;stroke-opacity:1"
     d="M 101.52982,509.03276 C 36.18888,508.18862 11.444069,507.177 9.5409564,505.27215 8.1090705,503.83896 6.125606,497.98133 5.1332578,492.2552 4.1409096,486.52908 2.6741899,376.89492 1.8738809,248.62373 L 0.41877391,15.40339 9.7559329,6.9787346 19.093092,-1.4459206 119.10587,0.14984483 c 55.00702,0.87767107 100.59342,1.94796977 101.3031,2.37844157 0.70968,0.4304716 1.95248,32.7916086 2.76176,71.9136346 l 1.47146,71.130959 6.3209,5.81253 c 8.2002,7.54065 12.18504,7.99062 87.95216,9.93163 l 62.91526,1.61177 -0.10587,167.57608 c -0.10479,165.70418 -0.15599,167.64293 -4.57251,173.55933 l -4.46653,5.98324 -90.88512,0.0701 c -49.98682,0.0386 -131.10856,-0.4496 -180.27055,-1.08474 z M 281.89266,381.01641 c 4.72182,-1.79524 5.56497,-3.46034 5.56497,-10.99008 0,-18.52664 6.6291,-17.26701 -90.87124,-17.26701 -91.0043,0 -99.157198,0.76123 -100.543835,9.38761 -1.021132,6.35255 1.950969,17.02033 5.341535,19.1724 4.00383,2.5413 173.77705,2.2564 180.50857,-0.30292 z m 3.44294,-65.13844 c 2.65692,-4.20621 2.6559,-19.66052 -0.002,-23.86441 -1.77536,-2.80849 -14.55963,-3.25424 -93.33404,-3.25424 -101.585679,0 -95.391184,-0.98616 -95.391184,15.18644 0,10.11875 1.562394,13.17637 7.526774,14.72998 2.38644,0.62163 43.67022,0.97862 91.74172,0.79334 75.08075,-0.28939 87.69252,-0.79566 89.45829,-3.59111 z m -3.44294,-62.86156 c 4.72182,-1.79524 5.56497,-3.46034 5.56497,-10.99008 0,-18.52664 6.6291,-17.26701 -90.87124,-17.26701 -91.0043,0 -99.157198,0.76123 -100.543835,9.38761 -1.021132,6.35255 1.950969,17.02033 5.341535,19.1724 4.00383,2.5413 173.77705,2.2564 180.50857,-0.30292 z"
     id="path833"
     inkscape:connector-curvature="0" />
  <path
     style="fill:#6597ee;fill-opacity:1;stroke:#6597ee;stroke-width:3.41477966;stroke-miterlimit:4;stroke-dasharray:none;stroke-dashoffset:0;stroke-opacity:1"
     d="M 42.305085,508.89567 C 23.810169,508.115 8.479787,507.3226 8.237568,507.13474 3.9065244,503.77604 2.8529942,467.60287 0.83489931,252.96271 L -1.3986866,15.40339 8.1548151,6.7477419 17.708316,-1.907906 98.888057,-1.3409247 c 44.648853,0.3118398 90.553573,1.1494981 102.010493,1.86146295 l 20.83075,1.29448155 1.39774,27.4043542 c 0.76876,15.072394 1.41609,45.953507 1.43852,68.624694 0.0447,45.263432 0.91661,49.205842 12.3594,55.888792 6.16006,3.59766 14.77374,4.29285 75.85623,6.12221 37.89887,1.13503 69.4272,2.77909 70.06293,3.65346 0.63574,0.87438 0.66774,76.76266 0.0711,168.64062 -1.02881,158.4381 -1.29336,167.35844 -5.13086,173.01695 l -4.04613,5.9661 -148.90303,-0.40856 C 142.93857,510.49893 60.8,509.67634 42.305085,508.89567 Z M 284.15408,378.46211 c 3.25517,-3.00418 2.57076,-19.13506 -0.90295,-21.28193 -5.6914,-3.51748 -53.28338,-5.04969 -114.03079,-3.67115 -33.41017,0.75815 -62.95305,1.99257 -65.65085,2.74311 -5.863482,1.63126 -8.211586,9.21969 -5.435689,17.56663 l 2.015069,6.0592 31.2815,1.2119 c 42.49249,1.64623 150.0988,-0.20524 152.72371,-2.62776 z m 0.0512,-62.94573 c 1.88119,-1.88364 1.87899,-21.26056 -0.002,-23.14123 -0.79631,-0.79549 -41.95996,-1.44634 -91.47523,-1.44634 -87.51479,0 -90.11707,0.12106 -93.227672,4.33899 -3.560936,4.8285 -2.205983,18.33159 2.122642,21.15369 3.07315,2.00357 180.55623,1.12373 182.58243,-0.90511 z m -0.0512,-65.05427 c 3.25517,-3.00418 2.57076,-19.13506 -0.90295,-21.28193 -5.6914,-3.51748 -53.28338,-5.04969 -114.03079,-3.67115 -33.41017,0.75815 -62.95305,1.99257 -65.65085,2.74311 -5.863482,1.63126 -8.211586,9.21969 -5.435689,17.56663 l 2.015069,6.0592 31.2815,1.2119 c 42.49249,1.64623 150.0988,-0.20524 152.72371,-2.62776 z"
     id="path835"
     inkscape:connector-curvature="0" />
</svg>
