<?xml version="1.0" encoding="UTF-8" standalone="no"?>
<svg
   xmlns:dc="http://purl.org/dc/elements/1.1/"
   xmlns:cc="http://creativecommons.org/ns#"
   xmlns:rdf="http://www.w3.org/1999/02/22-rdf-syntax-ns#"
   xmlns:svg="http://www.w3.org/2000/svg"
   xmlns="http://www.w3.org/2000/svg"
   xmlns:sodipodi="http://sodipodi.sourceforge.net/DTD/sodipodi-0.dtd"
   xmlns:inkscape="http://www.inkscape.org/namespaces/inkscape"
   aria-hidden="true"
   focusable="false"
   data-prefix="far"
   data-icon="circle"
   class="svg-inline--fa fa-circle fa-w-16"
   role="img"
   viewBox="0 0 512 512"
   version="1.1"
   id="svg4"
   sodipodi:docname="facebook.svg"
   inkscape:version="0.92.5 (2060ec1f9f, 2020-04-08)">
  <metadata
     id="metadata10">
    <rdf:RDF>
      <cc:Work
         rdf:about="">
        <dc:format>image/svg+xml</dc:format>
        <dc:type
           rdf:resource="http://purl.org/dc/dcmitype/StillImage" />
        <dc:title></dc:title>
      </cc:Work>
    </rdf:RDF>
  </metadata>
  <defs
     id="defs8" />
  <sodipodi:namedview
     pagecolor="#ffffff"
     bordercolor="#666666"
     borderopacity="1"
     objecttolerance="10"
     gridtolerance="10"
     guidetolerance="10"
     inkscape:pageopacity="0"
     inkscape:pageshadow="2"
     inkscape:window-width="1920"
     inkscape:window-height="1017"
     id="namedview6"
     showgrid="false"
     inkscape:zoom="1.3037281"
     inkscape:cx="248.09615"
     inkscape:cy="272.87789"
     inkscape:window-x="1672"
     inkscape:window-y="-8"
     inkscape:window-maximized="1"
     inkscape:current-layer="svg4" />
  <path
     fill="currentColor"
     d="M256 8C119 8 8 119 8 256s111 248 248 248 248-111 248-248S393 8 256 8zm0 448c-110.5 0-200-89.5-200-200S145.5 56 256 56s200 89.5 200 200-89.5 200-200 200z"
     id="path2" />
  <path
     style="fill:#000000;fill-opacity:1;stroke:#000000;stroke-width:0.73704612;stroke-miterlimit:4;stroke-dasharray:none;stroke-dashoffset:0;stroke-opacity:1"
     d="m 214.24464,353.06422 -0.1186,-69.88827 H 187.0837 160.04135 l 1.5e-4,-31.4907 1.5e-4,-31.49069 h 26.64984 26.64983 l 0.26551,-1.75598 c 0.14603,-0.9658 0.48822,-13.02943 0.76043,-26.80806 0.63316,-32.04794 0.89628,-35.94347 2.9732,-44.01674 1.99027,-7.73644 3.54918,-12.12156 6.16717,-17.34783 9.98448,-19.93205 28.56819,-33.857883 51.33926,-38.471452 5.05764,-1.02472 6.24039,-1.073513 25.43956,-1.049727 17.97008,0.02232 21.01651,0.137216 28.32992,1.068977 12.25571,1.56141 14.23165,1.919685 14.81336,2.68597 0.62529,0.823665 1.25504,27.180422 1.02293,42.812282 l -0.14947,10.06765 -6.08742,0.31904 c -3.34809,0.17546 -11.46695,0.54096 -18.04191,0.8122 -16.16598,0.6669 -20.51801,1.78976 -26.90708,6.94226 -3.25306,2.62346 -7.15811,8.16664 -8.37051,11.88188 -1.16824,3.57988 -1.57833,8.24555 -2.3824,27.10505 -0.3898,9.14285 -0.82819,18.54512 -0.97418,20.89396 -0.25879,4.16332 -0.23841,4.27784 0.81191,4.55916 0.59256,0.15872 13.82585,0.29467 29.4073,0.30213 15.58145,0.008 28.60184,0.1861 28.9342,0.39695 0.4795,0.3042 -0.36677,6.65231 -4.09846,30.74326 -2.58651,16.69794 -4.77925,30.43641 -4.87277,30.52993 -0.39097,0.39096 -17.60337,1.139 -33.30847,1.44755 l -16.85747,0.3312 -0.11861,69.65414 -0.11859,69.65414 h -33.47775 -33.47775 z"
     id="path909"
     inkscape:connector-curvature="0" />
  <path
     style="fill:#67bf95;fill-opacity:1;stroke:#67bf95;stroke-width:1.20730698;stroke-miterlimit:4;stroke-dasharray:none;stroke-dashoffset:0;stroke-opacity:1"
     d="M 232.43189,502.57591 C 132.47012,492.96756 47.620585,423.23582 18.820294,327.02387 4.3866331,278.80592 5.0266149,226.7295 20.634849,179.37039 32.975134,141.92701 51.267583,111.69135 78.578372,83.595326 120.17896,40.798639 173.04712,15.409588 233.03165,9.421721 c 13.3497,-1.3326137 45.61266,-0.5304668 58.42592,1.452631 66.71336,10.325175 123.21439,44.038017 163.09972,97.317808 63.71661,85.11418 65.43923,202.93892 4.23665,289.78208 -42.35092,60.09368 -108.08993,98.15557 -180.78358,104.67095 -10.26643,0.92015 -35.6867,0.88151 -45.57847,-0.0693 z m 36.3741,-46.72253 c 27.99679,-1.97244 50.73334,-8.06405 75.55256,-20.24216 38.78582,-19.03113 69.61298,-49.16911 89.41273,-87.41381 16.8241,-32.49701 23.8187,-65.23501 22.05888,-103.24587 C 451.83156,158.58443 390.41967,83.635523 305.90116,61.973737 288.70577,57.566623 276.19454,56.038355 256.91701,55.990242 223.31372,55.906376 197.0875,61.916189 167.17437,76.555023 119.89578,99.69214 83.31134,141.45642 66.256659,191.76127 48.592211,243.86471 53.228825,301.05654 79.088094,350.0348 c 9.351692,17.7124 20.120318,32.13399 35.537676,47.59288 37.20316,37.30339 84.48724,57.25452 139.60663,58.90586 1.8984,0.0568 8.45651,-0.24919 14.57359,-0.68016 z"
     id="path823"
     inkscape:connector-curvature="0" />
  <path
     style="fill:#67bf95;fill-opacity:1;stroke:#67bf95;stroke-width:1.20730698;stroke-miterlimit:4;stroke-dasharray:none;stroke-dashoffset:0;stroke-opacity:1"
     d="M 225.08522,502.24202 C 155.40549,492.63762 94.833075,456.28678 54.201633,399.691 30.062441,366.06738 15.201582,327.65573 9.914869,285.22067 2.7796494,227.94814 17.270748,167.0087 49.533665,118.6117 65.314918,94.938533 93.677719,66.557906 118.17093,49.931287 c 25.74872,-17.47889 56.44591,-30.377762 86.97148,-36.545173 18.51638,-3.7410653 21.71224,-4.0816955 41.80319,-4.4555885 25.40587,-0.4728037 40.44754,0.5046157 55.63096,3.6149425 66.82727,13.689574 119.71814,48.295799 157.66795,103.161342 23.84465,34.47315 38.16116,73.86367 42.51361,116.97224 1.14519,11.34233 0.95635,37.59122 -0.35866,49.85702 -4.2269,39.42648 -17.65484,76.90936 -39.15652,109.30193 -35.47908,53.44968 -87.78008,90.20233 -149.94915,105.37137 -20.04644,4.89125 -27.11986,5.65341 -54.84272,5.9092 -18.9658,0.175 -27.33128,-0.0448 -33.36585,-0.87655 z m 47.55592,-47.16279 c 18.37653,-1.66796 34.0244,-5.00638 49.55717,-10.57286 71.77484,-25.72197 121.64449,-87.22757 131.94983,-162.73733 1.94164,-14.22692 1.76116,-39.94528 -0.37949,-54.0757 C 447.07802,183.52853 428.19601,145.78537 397.33142,114.88117 381.3649,98.894166 364.76472,87.016514 344.35855,76.97836 324.58143,67.249652 305.78426,61.319822 284.53012,58.10464 273.24576,56.397618 241.63732,56.123843 230.83795,57.63959 194.77413,62.701331 162.64992,75.968778 134.2427,97.533875 123.46189,105.71804 104.881,124.50197 96.53899,135.64961 69.978,171.14372 56.305786,211.98131 56.351669,255.68528 c 0.03663,34.88571 7.954193,66.08558 24.48882,96.50035 11.617244,21.36944 30.685601,44.10296 49.899901,59.49126 29.11573,23.31813 65.18823,38.49951 101.24811,42.611 4.00773,0.45696 8.32228,0.95155 9.58788,1.09909 5.25296,0.61238 22.84768,0.43807 31.06476,-0.30775 z"
     id="path825"
     inkscape:connector-curvature="0" />
  <path
     style="fill:#67bf95;fill-opacity:1;stroke:#67bf95;stroke-width:1.20730698;stroke-miterlimit:4;stroke-dasharray:none;stroke-dashoffset:0;stroke-opacity:1"
     d="M 220.86654,501.90745 C 119.87393,486.57348 39.439226,413.60434 14.960436,315.11257 10.16373,295.81275 8.0154187,277.55012 8.0154187,256.07349 c 0,-34.90266 6.3358123,-66.08427 19.9289963,-98.08025 C 40.384054,128.71249 56.515847,105.11589 80.470594,81.161144 107.17904,54.452701 134.66893,36.434459 167.9414,23.828431 c 17.41708,-6.598857 40.09338,-12.214435 57.85189,-14.326494 8.99985,-1.070371 49.86327,-1.0570632 59.79985,0.019475 26.42881,2.863322 55.78591,11.788166 82.21576,24.9944 36.20762,18.091907 66.28919,43.939694 90.43971,77.710938 46.20805,64.61573 58.37359,148.41365 32.54376,224.16583 -21.99884,64.51687 -71.1615,118.48513 -133.01078,146.01244 -22.92481,10.20317 -47.92026,17.26643 -70.41366,19.89762 -14.56227,1.70344 -54.23201,1.4677 -66.50139,-0.39519 z m 67.06236,-49.02556 c 34.64554,-5.96858 66.30636,-20.15941 93.63066,-41.96657 8.05431,-6.42805 22.58646,-20.87922 29.13056,-28.96822 12.44198,-15.37925 25.83837,-39.00375 32.63848,-57.55786 3.53707,-9.65092 8.31373,-28.33041 9.91797,-38.78505 1.73085,-11.27967 2.34019,-34.16175 1.25616,-47.17241 -2.3471,-28.17066 -11.6991,-57.93421 -25.79067,-82.08105 -28.97077,-49.64336 -76.54213,-83.906162 -133.06801,-95.840892 -11.92319,-2.517432 -23.08361,-3.466256 -40.86661,-3.47435 -16.46936,-0.0075 -25.44571,0.823139 -38.48315,3.561079 -29.63235,6.222974 -56.87878,18.539649 -80.95009,36.593279 -8.25823,6.193714 -27.95503,25.476714 -35.24465,34.504214 -18.710679,23.17137 -33.588937,54.8791 -39.467182,84.1103 -5.154019,25.62979 -5.007386,56.57585 0.388745,82.04202 6.596999,31.1335 21.223723,60.9415 42.170407,85.93968 32.6207,38.9302 76.67214,63.06746 128.02994,70.15192 12.33091,1.70097 44.14262,1.10852 56.70744,-1.05609 z"
     id="path827"
     inkscape:connector-curvature="0" />
  <path
     style="fill:#67bf95;fill-opacity:1;stroke:#67bf95;stroke-width:1.20730698;stroke-miterlimit:4;stroke-dasharray:none;stroke-dashoffset:0;stroke-opacity:1"
     d="m 214.15906,352.91117 -0.19579,-69.99159 -26.65434,-0.2017 -26.65433,-0.2017 v -31.05481 -31.05482 h 26.41558 26.41557 l 0.448,-3.25988 c 0.2464,-1.79294 0.37522,-4.81312 0.28627,-6.71153 -0.20475,-4.36997 0.76022,-40.66863 1.28463,-48.32295 0.52369,-7.64393 0.81226,-9.72891 1.91148,-13.81112 0.50963,-1.89261 1.04184,-4.03955 1.18271,-4.77098 0.74327,-3.85953 6.12462,-15.22193 9.88801,-20.87795 9.76164,-14.67084 24.53011,-24.768414 43.77078,-29.927169 6.73306,-1.805249 7.48014,-1.843133 30.29773,-1.536369 12.86694,0.172986 24.42994,0.4689 25.69554,0.657586 2.94616,0.439239 7.75051,1.121289 10.90865,1.54865 1.35922,0.18393 2.79693,0.535666 3.19492,0.781634 1.15988,0.716846 1.71479,10.129548 1.87263,31.764858 0.1286,17.62625 -0.005,20.28774 -1.04994,20.84674 -0.65855,0.35244 -6.52993,0.85914 -13.04751,1.12598 -22.667,0.92805 -25.66937,1.29123 -31.02593,3.75302 -4.99971,2.29778 -7.97187,4.87272 -11.36385,9.84508 -3.39926,4.98303 -3.97731,7.3267 -4.6884,19.00878 -0.79907,13.12757 -1.55778,29.85397 -1.56568,34.5164 l -0.008,4.9857 4.211,0.0308 c 2.31604,0.017 15.08366,0.10852 28.37247,0.2035 13.28881,0.095 24.62664,0.46748 25.19517,0.82778 1.15927,0.73468 1.33729,2.84822 0.62116,7.37525 -0.26693,1.68747 -0.6358,4.18008 -0.81972,5.53914 -0.18391,1.35906 -0.51359,3.08488 -0.73263,3.83515 -0.21904,0.75028 -0.60738,3.26254 -0.86298,5.58281 -0.2556,2.32027 -0.60328,5.08158 -0.77261,6.13625 -0.36294,2.26052 -0.95383,6.08791 -1.59867,10.35492 -0.25501,1.68747 -0.58853,3.75845 -0.74115,4.60219 -0.15262,0.84373 -0.8542,5.07199 -1.55906,9.39613 -0.73255,4.49397 -1.65081,7.87513 -2.14348,7.89256 -0.47404,0.0168 -2.7603,0.16541 -5.08056,0.33032 -2.32027,0.1649 -12.67519,0.51368 -23.01094,0.77505 -10.33574,0.26138 -19.44835,0.67026 -20.25022,0.90863 -1.40028,0.41625 -1.43685,1.17751 -0.92415,19.2377 0.29361,10.34236 0.29053,41.53992 -0.007,69.32791 l -0.54061,50.52359 h -33.23932 -33.23931 z"
     id="path829"
     inkscape:connector-curvature="0" />
  <path
     style="fill:#67bf95;fill-opacity:1;stroke:#67bf95;stroke-width:1.20730698;stroke-miterlimit:4;stroke-dasharray:none;stroke-dashoffset:0;stroke-opacity:1"
     d="m 214.0911,423.15843 c -0.28124,-0.28124 -0.51135,-31.86375 -0.51135,-70.18335 V 283.3031 l -15.53238,-0.003 c -8.54281,-0.002 -20.45097,-0.22782 -26.46257,-0.50283 l -10.9302,-0.49976 v -30.93537 -30.93538 l 26.27082,-0.20183 26.27081,-0.20183 0.55657,-16.10765 c 1.84287,-53.33515 2.26237,-56.90206 8.20512,-69.76511 4.4377,-9.60537 9.09704,-16.19095 16.34451,-23.10152 7.96647,-7.59616 17.06314,-13.019071 28.35793,-16.905363 l 8.66539,-2.981577 25.31203,0.0336 c 25.53216,0.03389 38.76432,0.998033 41.53861,3.026642 1.09715,0.802249 1.40332,3.248548 1.97992,15.819068 0.9278,20.22734 0.5505,35.8057 -0.88872,36.6943 -0.60003,0.37046 -4.742,0.88333 -9.20438,1.1397 -24.40626,1.40219 -29.0354,1.90908 -33.43177,3.66078 -6.01344,2.39601 -11.3076,7.29938 -14.16469,13.11913 -2.25868,4.6008 -2.36343,5.29944 -3.47152,23.1527 -0.62842,10.12481 -1.14418,21.37329 -1.14615,24.99663 l -0.004,6.58787 27.96975,0.52092 c 15.38336,0.2865 28.46557,0.71118 29.0716,0.94373 1.88414,0.72301 1.99739,3.35945 0.52193,12.14984 -0.78407,4.67125 -1.65768,10.39159 -1.94135,12.71185 -1.00175,8.1938 -5.086,32.34722 -5.77721,34.16522 -0.38526,1.01332 -1.4893,2.00986 -2.45342,2.21453 -0.96412,0.20468 -11.87768,0.70322 -24.25234,1.10786 -12.37467,0.40466 -22.71255,0.94888 -22.97306,1.2094 -0.26052,0.26052 -0.3748,18.74265 -0.25397,41.0714 0.12084,22.32874 -0.0324,53.55436 -0.34059,69.39026 l -0.56001,28.79255 h -33.12706 c -18.21988,0 -33.35717,-0.23011 -33.63842,-0.51136 z"
     id="path831"
     inkscape:connector-curvature="0" />
  <path
     style="fill:#67bf95;fill-opacity:1;stroke:#67bf95;stroke-width:1.20730698;stroke-miterlimit:4;stroke-dasharray:none;stroke-dashoffset:0;stroke-opacity:1"
     d="m 213.57975,353.99193 v -69.67785 l -16.23133,-0.50549 c -8.92723,-0.27802 -19.7136,-0.50929 -23.96972,-0.51394 -4.25612,-0.005 -9.03659,-0.223 -10.62328,-0.48525 l -2.88488,-0.47682 0.20027,-31.15477 0.20028,-31.15478 26.19577,-0.20173 26.19577,-0.20175 0.4445,-8.61911 c 0.24447,-4.74052 0.65777,-16.04015 0.91844,-25.11029 0.26067,-9.07014 0.56846,-17.35408 0.68398,-18.40875 0.11551,-1.05466 0.4638,-5.36921 0.77396,-9.58789 1.2415,-16.88613 8.85597,-33.44004 20.94033,-45.5244 8.50567,-8.50567 17.58402,-13.985328 31.53897,-19.036813 l 7.28494,-2.637043 25.37259,0.134201 c 24.23404,0.128179 40.33122,1.220742 41.95831,2.847834 1.42397,1.423962 2.22885,14.618651 2.01014,32.952681 -0.14718,12.33767 -0.5252,19.59507 -1.04785,20.11684 -0.44969,0.44893 -5.79973,1.16304 -11.88898,1.58689 -23.21282,1.61579 -27.60072,2.17804 -31.72169,4.06468 -7.56475,3.46326 -13.59663,10.65421 -14.95309,17.82643 -0.39281,2.07699 -1.08483,10.85222 -1.5378,19.50049 -0.45298,8.64828 -0.98968,18.69548 -1.19266,22.32712 l -0.36907,6.60298 7.46249,0.49 c 4.10437,0.26949 15.57384,0.52828 25.48771,0.57508 20.25155,0.0956 24.39612,0.48159 25.59236,2.38336 0.90129,1.43287 0.12376,7.78949 -4.56163,37.29325 -2.91549,18.35868 -3.8295,22.07274 -5.60775,22.78698 -0.67809,0.27236 -11.65184,0.90092 -24.3861,1.39681 -12.73425,0.49588 -23.32439,1.07281 -23.53364,1.28206 -0.20925,0.20925 -0.45512,31.5264 -0.54637,69.59365 l -0.16591,69.2132 h -34.01953 -34.01953 z"
     id="path833"
     inkscape:connector-curvature="0" />
  <path
     style="fill:#67bf95;fill-opacity:1;stroke:#67bf95;stroke-width:1.20730698;stroke-miterlimit:4;stroke-dasharray:none;stroke-dashoffset:0;stroke-opacity:1"
     d="m 218.82542,423.86958 -5.10926,-0.26678 -0.32586,-12.04724 c -0.17922,-6.62599 -0.38872,-37.73944 -0.46555,-69.14098 -0.0768,-31.40156 -0.32232,-57.27635 -0.54552,-57.49956 -0.2232,-0.2232 -11.56045,-0.63904 -25.19389,-0.92408 -13.63344,-0.28504 -25.5717,-0.76697 -26.52947,-1.07096 -1.64867,-0.52326 -1.71578,-0.82391 -1.2603,-5.64576 0.2646,-2.80119 0.48355,-16.91494 0.48655,-31.36389 l 0.005,-26.27081 h 26.06445 26.06444 l 0.35846,-1.72582 c 0.19715,-0.9492 0.74184,-13.4614 1.21043,-27.80488 1.23609,-37.83666 2.19915,-44.41223 8.46204,-57.7769 9.01267,-19.23252 23.77332,-31.70457 47.14211,-39.832841 l 7.67031,-2.667931 24.545,0.501192 c 22.15129,0.452315 35.19705,1.255315 40.00698,2.462533 2.88196,0.723324 3.42137,6.026801 3.1717,31.184357 -0.12372,12.46669 -0.48629,22.92756 -0.80572,23.24638 -0.31943,0.31882 -6.70496,1.03397 -14.19008,1.58922 -19.40242,1.43927 -25.85613,2.30614 -29.64433,3.98184 -6.29202,2.78326 -12.41699,9.78323 -14.29743,16.33993 -0.75201,2.6221 -3.02277,35.67105 -3.02958,44.09285 -0.002,3.29957 0.31321,4.83353 1.05384,5.11773 0.5817,0.22323 12.92131,0.64343 27.42136,0.9338 29.90094,0.59876 29.81536,0.58202 29.81536,5.83306 0,3.54114 -4.70706,35.49241 -6.89925,46.83166 -1.9303,9.98467 -2.1933,10.38857 -7.09634,10.89791 -3.77327,0.39199 -37.70152,2.0017 -42.07228,1.9961 l -1.99218,-0.002 -0.55971,69.20158 c -0.30785,38.06086 -0.7261,69.47079 -0.92946,69.79983 -0.35147,0.56869 -51.74653,0.59419 -62.53227,0.031 z"
     id="path835"
     inkscape:connector-curvature="0" />
  <path
     style="fill:#67bf95;fill-opacity:1;stroke:#67bf95;stroke-width:1.20730698;stroke-miterlimit:4;stroke-dasharray:none;stroke-dashoffset:0;stroke-opacity:1"
     d="m 213.21676,423.47803 c -0.17317,-0.52734 -0.42851,-31.74321 -0.56742,-69.36861 -0.13891,-37.6254 -0.41785,-68.57138 -0.61987,-68.76884 -0.20201,-0.19745 -10.03189,-0.57376 -21.84417,-0.83624 -11.81228,-0.26248 -23.63414,-0.66761 -26.27081,-0.90029 l -4.79395,-0.42306 v -31.66436 -31.66436 l 26.27082,-0.56249 c 14.44895,-0.30936 26.36858,-0.65635 26.48808,-0.77108 0.11951,-0.11473 0.71827,-12.76684 1.3306,-28.1158 1.17061,-29.34317 1.90506,-38.06806 3.82507,-45.43947 4.32807,-16.61659 15.41581,-32.32993 29.6185,-41.97479 5.64222,-3.831555 14.77678,-8.171618 23.68644,-11.254022 l 6.51976,-2.255592 25.31203,0.593603 c 27.22061,0.638362 39.21935,1.631403 40.98161,3.391721 2.36516,2.362548 2.71225,51.30697 0.38039,53.63883 -0.59759,0.59759 -5.44813,1.31858 -12.72647,1.89167 -27.21157,2.14262 -30.88536,2.99356 -36.98268,8.56617 -6.98978,6.38827 -7.93605,9.16569 -9.2598,27.17858 -1.30218,17.71959 -1.78171,32.24846 -1.08745,32.94841 0.26474,0.26692 12.64377,0.82416 27.50894,1.2383 16.50638,0.45986 27.63372,1.07738 28.58467,1.58631 1.45335,0.77781 1.52565,1.32587 1.08509,8.2257 -0.48506,7.59676 -4.90824,36.7856 -7.08012,46.72214 -0.88311,4.0403 -1.68041,5.87624 -2.88892,6.65231 -1.54915,0.99484 -7.56818,1.40581 -43.08885,2.94204 l -3.83516,0.16586 -0.48466,10.35492 c -0.26656,5.69521 -0.52618,28.47603 -0.57693,50.62406 -0.0508,22.14802 -0.31938,48.81194 -0.59695,59.25315 l -0.50468,18.98402 h -34.03413 c -26.54804,0 -34.10339,-0.2109 -34.34898,-0.95879 z"
     id="path837"
     inkscape:connector-curvature="0" />
  <path
     style="fill:#67bf95;fill-opacity:1;stroke:#67bf95;stroke-width:1.20730698;stroke-miterlimit:4;stroke-dasharray:none;stroke-dashoffset:0;stroke-opacity:1"
     d="m 232.75553,424.43682 -19.5593,-0.38352 -0.46669,-26.07906 c -0.25669,-14.34348 -0.51556,-45.46048 -0.57528,-69.14888 l -0.10857,-43.06983 -8.6291,-0.44359 c -4.74601,-0.24398 -16.39529,-0.65188 -25.8873,-0.90644 -9.49201,-0.25457 -17.55317,-0.74639 -17.91368,-1.09295 -0.68464,-0.65812 -0.71277,-62.70024 -0.0289,-63.80671 0.21528,-0.34835 9.98502,-0.63335 21.71052,-0.63335 11.72549,0 23.4407,-0.22176 26.03378,-0.49279 l 4.71471,-0.49278 0.003,-5.45171 c 0.006,-9.77139 2.26565,-52.84893 3.10225,-59.14388 1.11762,-8.40943 5.15545,-19.86901 9.64258,-27.36616 4.5081,-7.53218 14.54733,-18.35332 21.1637,-22.81203 6.11751,-4.122533 15.09304,-8.41834 24.2738,-11.617758 l 7.17821,-2.501547 27.7217,0.936109 c 29.49459,0.995976 36.08164,1.592769 37.9249,3.436025 1.74164,1.741644 2.63125,15.815061 2.25146,35.617741 -0.25591,13.34311 -0.56552,17.3467 -1.40572,18.17734 -0.73162,0.72331 -5.5097,1.45276 -14.88409,2.27233 -26.77719,2.34101 -30.12967,3.28703 -36.66538,10.34638 -4.5374,4.90092 -5.60025,7.61825 -6.68101,17.08096 -0.86956,7.61342 -2.2889,29.92341 -2.29069,36.00623 l -0.002,4.34937 4.79394,0.43265 c 2.63667,0.23797 15.10835,0.77111 27.71485,1.18479 27.20641,0.89275 26.1579,0.54393 25.37843,8.44306 -1.26473,12.8168 -6.51736,45.8536 -8.21375,51.6611 -0.46938,1.60688 -1.42392,3.22693 -2.1212,3.6001 -0.69728,0.37317 -7.97127,1.04497 -16.16444,1.49288 -8.19317,0.44792 -18.40621,1.01643 -22.69567,1.26336 l -7.799,0.44895 -0.43183,6.2585 c -0.23751,3.44217 -0.69735,34.4469 -1.02186,68.8994 -0.32451,34.4525 -0.76276,62.81363 -0.97389,63.02474 -0.63338,0.63358 -28.20134,0.92054 -49.08937,0.51097 z"
     id="path839"
     inkscape:connector-curvature="0" />
</svg>
