<?xml version="1.0" encoding="UTF-8" standalone="no"?>
<svg
   xmlns:dc="http://purl.org/dc/elements/1.1/"
   xmlns:cc="http://creativecommons.org/ns#"
   xmlns:rdf="http://www.w3.org/1999/02/22-rdf-syntax-ns#"
   xmlns:svg="http://www.w3.org/2000/svg"
   xmlns="http://www.w3.org/2000/svg"
   xmlns:sodipodi="http://sodipodi.sourceforge.net/DTD/sodipodi-0.dtd"
   xmlns:inkscape="http://www.inkscape.org/namespaces/inkscape"
   aria-hidden="true"
   focusable="false"
   data-prefix="far"
   data-icon="circle"
   class="svg-inline--fa fa-circle fa-w-16"
   role="img"
   viewBox="0 0 512 512"
   version="1.1"
   id="svg4"
   sodipodi:docname="pencil.svg"
   inkscape:version="0.92.5 (2060ec1f9f, 2020-04-08)">
  <metadata
     id="metadata10">
    <rdf:RDF>
      <cc:Work
         rdf:about="">
        <dc:format>image/svg+xml</dc:format>
        <dc:type
           rdf:resource="http://purl.org/dc/dcmitype/StillImage" />
        <dc:title></dc:title>
      </cc:Work>
    </rdf:RDF>
  </metadata>
  <defs
     id="defs8" />
  <sodipodi:namedview
     pagecolor="#ffffff"
     bordercolor="#666666"
     borderopacity="1"
     objecttolerance="10"
     gridtolerance="10"
     guidetolerance="10"
     inkscape:pageopacity="0"
     inkscape:pageshadow="2"
     inkscape:window-width="1920"
     inkscape:window-height="1017"
     id="namedview6"
     showgrid="false"
     inkscape:zoom="0.70710678"
     inkscape:cx="-61.235619"
     inkscape:cy="271.26216"
     inkscape:window-x="1672"
     inkscape:window-y="-8"
     inkscape:window-maximized="1"
     inkscape:current-layer="svg4" />
  <path
     fill="currentColor"
     d="M256 8C119 8 8 119 8 256s111 248 248 248 248-111 248-248S393 8 256 8zm0 448c-110.5 0-200-89.5-200-200S145.5 56 256 56s200 89.5 200 200-89.5 200-200 200z"
     id="path2" />
  <path
     inkscape:connector-curvature="0"
     style="fill:currentColor;stroke-width:0.52963859"
     d="m 389.53685,188.04758 -24.41634,24.41633 c -2.48931,2.4893 -6.51456,2.4893 -9.00385,0 l -58.78989,-58.78987 c -2.4893,-2.4893 -2.4893,-6.51456 0,-9.00387 l 24.41634,-24.41633 c 9.90424,-9.90424 26.00526,-9.90424 35.96247,0 l 31.83127,31.83128 c 9.9572,9.90424 9.9572,26.00524 0,35.96246 z M 276.35309,165.64386 137.27002,304.72694 126.04168,369.07803 c -1.53596,8.68606 6.03787,16.20694 14.72395,14.72395 L 205.1167,372.52069 344.19978,233.43761 c 2.4893,-2.48932 2.4893,-6.51457 0,-9.00387 L 285.4099,165.64386 c -2.54226,-2.4893 -6.56751,-2.4893 -9.05681,0 z m -84.79513,127.16622 c -2.91303,-2.91301 -2.91303,-7.57384 0,-10.48685 l 81.56433,-81.56433 c 2.91301,-2.91301 7.57382,-2.91301 10.48684,0 2.91302,2.91302 2.91302,7.57383 0,10.48683 l -81.56433,81.56435 c -2.91301,2.91302 -7.57383,2.91302 -10.48684,0 z m -19.11995,44.5426 h 25.42264 v 19.22588 l -34.16168,5.98491 -16.47176,-16.47175 5.98492,-34.16169 h 19.22588 z"
     id="path2-5" />
  <path
     style="fill:#67bf95;fill-opacity:0;stroke:none;stroke-width:0.7247538;stroke-miterlimit:4;stroke-dasharray:none;stroke-dashoffset:0;stroke-opacity:1"
     d="M 234.9979,502.77606 C 189.51106,498.94305 144.33649,481.71572 107.78888,454.26488 53.591463,413.55731 19.18567,354.33742 10.134286,286.17996 8.2568243,272.04257 8.2732288,239.37226 10.164712,225.58451 14.335853,195.17946 22.489348,168.76154 35.495107,143.51218 74.298205,68.179919 146.1654,18.894796 230.77923,9.5901248 241.75887,8.382734 270.7774,8.3620412 281.01977,9.554299 c 27.97591,3.256524 51.46376,9.524766 75.36437,20.112624 13.45445,5.960256 23.37552,11.450216 36.62217,20.265366 14.67027,9.762527 25.70102,18.784152 37.97588,31.05901 40.39763,40.397621 65.048,92.034601 71.40575,149.578911 1.24407,11.26018 1.26242,39.29166 0.0329,50.24053 -4.71864,42.01915 -18.21916,79.41053 -40.84785,113.13319 -17.23754,25.68843 -41.90544,50.38008 -67.41613,67.48101 -47.01477,31.51604 -103.0635,46.07808 -159.15895,41.35112 z m 44.19787,-47.83011 c 22.83217,-2.67083 43.80113,-8.87071 64.72055,-19.1359 21.22055,-10.41295 37.13689,-21.78088 53.72761,-38.37388 31.21189,-31.21616 49.8672,-68.60008 56.85869,-113.94082 1.91883,-12.44383 1.9155,-42.81994 -0.006,-55.22623 C 445.40567,169.57511 414.33374,120.44417 366.28112,88.782956 299.31299,44.658573 212.00155,44.724955 145.43845,88.950859 133.29702,97.017878 125.19972,103.66834 114.5385,114.32956 83.691594,145.17646 64.907187,182.33758 57.73434,226.705 c -1.635192,10.11443 -2.263955,37.41389 -1.124352,48.81683 9.358122,93.63787 82.210252,168.09744 175.519272,179.39201 11.47208,1.38863 35.33067,1.40491 47.06642,0.0321 z"
     id="path827"
     inkscape:connector-curvature="0" />
  <path
     style="fill:#67bf95;fill-opacity:1;stroke:#67bf95;stroke-width:1.11298609;stroke-miterlimit:4;stroke-dasharray:none;stroke-dashoffset:0;stroke-opacity:1"
     d="M 233.06144,502.71787 C 162.85951,495.78193 99.771773,460.31699 57.689929,404.13227 30.649631,368.02998 14.732781,327.25212 9.526979,280.74214 c -1.1724341,-10.47482 -1.1724341,-39.02265 0,-49.49747 2.797698,-24.99536 8.396874,-47.44655 17.133389,-68.70028 C 62.330046,75.76905 143.11714,16.644522 236.24342,9.1597556 c 13.0166,-1.0461726 39.79053,-0.4641464 51.22581,1.1135744 57.19681,7.891419 107.05571,32.974318 146.4185,73.659874 53.601,55.402226 78.21097,131.570476 67.1302,207.769096 -11.64054,80.048 -61.49839,149.04966 -134.20945,185.74153 -23.9904,12.10617 -50.63361,20.26242 -79.33925,24.288 -9.67598,1.35692 -44.30227,1.98446 -54.40779,0.98604 z m 45.25484,-47.70881 c 35.87336,-4.11065 69.01898,-17.18492 97.22718,-38.3512 45.15776,-33.88456 73.25605,-82.95868 79.64292,-139.0977 1.1377,-10.00005 1.1377,-33.13346 0,-43.13351 C 447.3877,165.87821 406.5046,107.29252 344.97439,76.492326 295.10553,51.529453 234.61495,49.039216 182.14976,69.789266 133.26557,89.123021 93.036072,128.06616 72.245963,176.17885 c -7.474037,17.29649 -13.017941,37.9095 -15.380572,57.18714 -1.172174,9.56422 -1.172174,35.69061 0,45.25483 6.777357,55.29911 34.493883,103.87044 78.195329,137.03201 29.90788,22.69472 64.88703,36.18699 103.65758,39.98314 7.44943,0.7294 31.01784,0.35627 39.59798,-0.62691 z"
     id="path1049"
     inkscape:connector-curvature="0" />
  <path
     style="fill:#67bf95;fill-opacity:1;stroke:#67bf95;stroke-width:1.11298609;stroke-miterlimit:4;stroke-dasharray:none;stroke-dashoffset:0;stroke-opacity:1"
     d="M 228.8188,502.74174 C 154.9352,493.48764 90.751424,454.36518 50.085669,393.79705 26.239368,358.28006 11.481873,315.46578 8.801756,274.02463 4.8370399,212.72046 21.773255,155.22153 57.955163,107.14743 68.721718,92.842149 82.726328,77.929512 95.530617,67.13568 131.20012,37.066793 171.2129,18.766904 218.56575,10.865425 230.21869,8.920972 231.3548,8.8603491 255.68886,8.8845335 c 27.56149,0.027392 31.57819,0.3734045 50.14055,4.3192725 29.51643,6.274415 56.27931,16.841479 80.37418,31.734967 4.23942,2.620463 8.82546,5.579062 10.19121,6.574664 15.41616,11.23805 20.94547,15.980246 34.6987,29.759207 13.93153,13.957602 21.74578,23.387936 31.4014,37.895596 21.08721,31.68373 33.9709,65.71747 39.34892,103.9447 1.82556,12.97605 2.50961,37.9009 1.40956,51.35968 -7.12864,87.21683 -56.19973,161.05365 -134.42744,202.27174 -21.65027,11.40751 -50.95931,20.71806 -78.48885,24.93342 -8.84631,1.35456 -53.08907,2.11974 -61.51829,1.06396 z m 56.78933,-49.01594 c 53.9984,-8.83599 98.8715,-35.87926 131.06142,-78.98562 C 450.45998,329.49054 463.3762,269.87919 451.43834,214.2741 436.5702,145.0201 386.31138,88.797675 319.32847,66.488343 247.29446,42.496693 168.32729,61.178669 114.61875,114.91837 83.987071,145.56781 65.400185,182.66941 57.936531,228.06269 c -1.990398,12.10542 -1.802936,45.42272 0.325163,57.79076 7.663166,44.5366 26.154089,81.042 56.339606,111.22751 31.54852,31.54853 70.62016,50.83312 115.98527,57.24687 9.7959,1.38495 45.2494,0.99702 55.02156,-0.60203 z"
     id="path1051"
     inkscape:connector-curvature="0" />
  <path
     style="fill:#67bf95;fill-opacity:1;stroke:#67bf95;stroke-width:1.11298609;stroke-miterlimit:4;stroke-dasharray:none;stroke-dashoffset:0;stroke-opacity:1"
     d="m 358.5729,213.58239 c -0.77782,-0.33114 -15.17628,-14.39975 -31.99659,-31.26358 -28.65273,-28.72689 -30.58236,-30.81785 -30.58236,-33.13919 0,-2.28734 1.15422,-3.62129 15.02602,-17.36571 17.59291,-17.43138 18.90661,-18.26473 28.82947,-18.28825 10.22326,-0.0242 11.71826,1.00784 33.9825,23.45941 22.13222,22.31845 22.19742,22.41561 22.20892,33.09486 0.011,10.22654 -0.86236,11.64395 -17.57031,28.51524 -12.1699,12.28887 -16.16324,15.77321 -17.91799,15.63411 -0.311,-0.0246 -1.20185,-0.31575 -1.97966,-0.64689 z"
     id="path1053"
     inkscape:connector-curvature="0" />
  <path
     style="fill:#67bf95;fill-opacity:1;stroke:#67bf95;stroke-width:1.11298609;stroke-miterlimit:4;stroke-dasharray:none;stroke-dashoffset:0;stroke-opacity:1"
     d="m 334.45777,190.39786 c -33.40733,-33.04483 -38.46211,-38.47984 -38.47042,-41.36423 -0.006,-2.04387 1.59873,-3.8786 15.02602,-17.18091 17.68077,-17.5162 19.07542,-18.42808 28.50228,-18.63585 5.32471,-0.11736 6.65489,0.10727 9.82772,1.65959 4.53777,2.22012 16.53182,13.14581 30.10914,27.42719 16.29968,17.14491 16.95612,18.20823 16.92937,27.42273 -0.0277,9.51219 -0.87004,11.10672 -12.67193,23.98528 -10.01809,10.932 -20.91408,20.56509 -23.24533,20.55105 -1.53067,-0.009 -6.4943,-4.56403 -26.00685,-23.86485 z"
     id="path1055"
     inkscape:connector-curvature="0" />
  <path
     style="fill:#67bf95;fill-opacity:1;stroke:#67bf95;stroke-width:1.11298609;stroke-miterlimit:4;stroke-dasharray:none;stroke-dashoffset:0;stroke-opacity:1"
     d="m 359.00948,214.17708 c -2.2327,-0.84003 -59.49962,-58.08461 -61.99328,-61.96908 -1.57884,-2.45943 -1.80405,-3.3159 -1.20854,-4.59619 2.2087,-4.74856 29.57811,-30.89945 34.77352,-33.22536 4.10907,-1.83957 14.01877,-2.00406 17.97535,-0.29836 4.13033,1.7806 12.24752,8.94298 26.32648,23.22973 21.04912,21.35979 21.7134,22.37465 21.57766,32.96535 -0.10017,7.81485 -0.86185,9.96865 -5.64031,15.94907 -4.677,5.85344 -25.34744,26.15254 -28.00482,27.50171 -1.48337,0.75311 -2.62798,0.88638 -3.80606,0.44313 z"
     id="path1057"
     inkscape:connector-curvature="0" />
  <path
     style="fill:#67bf95;fill-opacity:1;stroke:#67bf95;stroke-width:1.11298609;stroke-miterlimit:4;stroke-dasharray:none;stroke-dashoffset:0;stroke-opacity:1"
     d="m 357.86579,213.66163 c -2.73762,-1.69613 -55.81238,-54.59378 -59.65826,-59.45917 -1.60638,-2.03223 -2.92069,-4.46459 -2.92069,-5.40525 0,-2.33082 8.54355,-11.72765 21.15243,-23.26501 12.86154,-11.76855 14.5183,-12.66929 23.36425,-12.70255 5.82661,-0.0219 7.21947,0.21513 10.19553,1.73502 7.1829,3.66834 41.68596,38.08374 44.95885,44.84462 1.90587,3.93701 2.59873,11.602 1.51051,16.71045 -0.45222,2.12283 -1.94765,5.5599 -3.3232,7.63795 -2.84269,4.29449 -25.92234,27.66882 -29.43419,29.81 -2.83833,1.73055 -3.19445,1.73627 -5.84523,0.0939 z"
     id="path1059"
     inkscape:connector-curvature="0" />
  <path
     style="fill:#67bf95;fill-opacity:1;stroke:#67bf95;stroke-width:1.11298609;stroke-miterlimit:4;stroke-dasharray:none;stroke-dashoffset:0;stroke-opacity:1"
     d="m 352.01779,208.67832 c -8.09156,-7.41291 -49.51213,-49.05773 -53.78631,-54.07751 -3.75042,-4.40466 -3.79195,-6.3043 -0.23604,-10.79711 4.56868,-5.77243 25.90946,-25.90291 30.20964,-28.49636 3.69273,-2.22709 4.6447,-2.4724 10.60677,-2.73316 5.81624,-0.25438 6.97305,-0.0918 10.32707,1.45187 4.75285,2.18739 13.74708,10.22165 29.58652,26.4287 17.33618,17.73854 18.78428,20.22948 18.25026,31.39295 -0.41498,8.67495 -2.02063,11.23502 -16.12894,25.71616 -13.07901,13.42465 -17.71657,17.41735 -20.23041,17.41735 -1.17702,0 -3.88683,-1.98633 -8.59856,-6.30289 z"
     id="path1061"
     inkscape:connector-curvature="0" />
  <path
     style="fill:#67bf95;fill-opacity:1;stroke:#67bf95;stroke-width:1.11298609;stroke-miterlimit:4;stroke-dasharray:none;stroke-dashoffset:0;stroke-opacity:1"
     d="m 135.93747,383.13023 c -5.38648,-1.13291 -9.65138,-6.13723 -9.64734,-11.31992 10e-4,-1.27945 2.53175,-16.78884 5.62388,-34.46532 l 5.62207,-32.13906 70.21332,-70.23528 c 38.61733,-38.62941 70.93545,-70.42115 71.81804,-70.64831 0.8826,-0.22716 2.49763,-0.0432 3.58896,0.40888 1.09134,0.45205 15.56317,14.425 32.15964,31.051 29.55448,29.60709 30.17538,30.2865 30.17538,33.01858 0,2.75857 -0.78171,3.57001 -70.5339,73.21726 l -70.5339,70.42778 -27.93072,4.83807 c -37.98724,6.58004 -37.44117,6.50132 -40.55543,5.84632 z m 45.3284,-23.3125 17.14734,-2.98335 v -9.76185 -9.76185 h -12.72792 -12.72792 v -12.74733 -12.74734 l -10.06715,0.19619 -10.06716,0.19619 -2.98243,16.97057 -2.98243,16.97056 8.26556,8.3085 c 4.54606,4.56968 8.42963,8.31628 8.63017,8.32578 0.20053,0.009 8.08091,-1.32523 17.51194,-2.96607 z m 61.87184,-107.97962 c 39.36902,-39.30922 42.95674,-43.08535 42.95674,-45.21261 0,-5.28195 -4.55414,-9.25146 -9.44241,-8.23025 -1.73333,0.36211 -11.41353,9.62666 -43.81761,41.93618 -22.87601,22.80925 -42.04744,42.33061 -42.60318,43.3808 -3.15638,5.96469 1.6606,12.6568 8.18196,11.367 1.15142,-0.22773 16.74512,-15.30425 44.7245,-43.24112 z"
     id="path1063"
     inkscape:connector-curvature="0" />
  <path
     style="fill:#67bf95;fill-opacity:1;stroke:#67bf95;stroke-width:1.11298609;stroke-miterlimit:4;stroke-dasharray:none;stroke-dashoffset:0;stroke-opacity:1"
     d="m 135.56754,383.21654 c -5.2598,-1.12154 -9.27922,-6.02018 -9.27922,-11.30898 0,-2.83832 2.48854,-18.37158 9.69721,-60.52926 l 1.10922,-6.48694 42.50327,-42.3375 c 86.85907,-86.52031 99.18213,-98.48434 101.4399,-98.48434 1.67571,0 4.18309,2.0007 13.63126,10.87672 13.43081,12.6175 44.40192,43.83108 48.21561,48.59308 3.63654,4.54081 3.44066,6.00559 -1.57171,11.75305 -2.29808,2.63513 -34.08886,34.67209 -70.64618,71.19327 l -66.46786,66.40215 -13.67629,2.37274 c -46.83724,8.12592 -51.19776,8.75721 -54.95521,7.95601 z m 44.73997,-23.63946 c 7.81914,-1.36528 15.1007,-2.66535 16.18126,-2.88903 l 1.96465,-0.40668 -0.19688,-9.30857 -0.19688,-9.30856 -12.5349,-0.19303 -12.53489,-0.19302 -0.19303,-12.5349 -0.19303,-12.5349 -9.54594,0.25378 c -5.25027,0.13958 -9.63992,0.33963 -9.75479,0.44456 -0.11487,0.10493 -1.50658,7.58303 -3.09267,16.61801 l -2.88382,16.42722 8.03089,8.05373 c 4.64242,4.65563 8.60102,8.05373 9.38215,8.05373 0.7432,0 7.74875,-1.11705 15.56788,-2.48234 z m 27.15288,-73.10759 c 4.94122,-4.62814 24.4962,-23.9848 43.4555,-43.01481 34.04117,-34.16813 34.47145,-34.63552 34.47145,-37.4439 0,-4.76917 -4.33656,-8.13265 -8.98219,-6.96667 -1.2516,0.31413 -16.50417,15.04284 -44.19784,42.67984 l -42.28671,42.20017 0.004,3.05169 c 0.004,3.72262 0.85544,5.43609 3.38021,6.80623 3.73725,2.02813 4.73197,1.51428 14.15593,-7.31255 z"
     id="path1065"
     inkscape:connector-curvature="0" />
  <path
     style="fill:#67bf95;fill-opacity:1;stroke:#67bf95;stroke-width:1.11298609;stroke-miterlimit:4;stroke-dasharray:none;stroke-dashoffset:0;stroke-opacity:1"
     d="m 132.87583,382.65315 c -3.19114,-1.50022 -6.28424,-5.4623 -6.97772,-8.93804 -0.32299,-1.61883 8.04495,-54.50601 10.70065,-67.63035 0.26607,-1.31491 20.7401,-22.04351 68.03056,-68.87641 62.5848,-61.97926 74.87493,-73.84593 76.4811,-73.84593 1.85136,0 10.99245,8.4776 35.19569,32.64106 26.54826,26.50463 30.20224,30.72172 29.37161,33.89802 -0.65882,2.51933 -18.52582,20.8789 -80.55333,82.7741 l -60.70077,60.57128 -29.64123,5.06403 c -35.0103,5.98131 -37.80428,6.27082 -41.90656,4.34224 z m 54.0469,-24.55909 10.78337,-1.92273 v -9.06045 -9.06046 l -12.55114,-0.19309 -12.55115,-0.19309 -0.1935,-12.65208 -0.1935,-12.65208 -9.21268,0.37365 c -5.06697,0.20551 -9.31895,0.48958 -9.44883,0.63126 -0.12988,0.14169 -1.52258,7.41707 -3.09487,16.16752 l -2.85873,15.9099 8.29044,8.23372 8.29044,8.23373 5.97839,-0.94654 c 3.28811,-0.52059 10.8309,-1.81176 16.76176,-2.86926 z m 17.23887,-69.1416 c 10.14116,-8.95179 79.67723,-79.16682 80.46725,-81.25292 0.56563,-1.4936 0.50512,-2.56255 -0.24695,-4.3625 -1.15086,-2.7544 -2.94152,-3.91218 -6.05071,-3.91218 -2.90687,0 -10.19694,6.85548 -54.36161,51.12088 l -34.19415,34.27214 0.48091,3.08865 c 0.56934,3.65661 3.06628,6.27064 5.98974,6.27064 1.47661,0 3.53826,-1.36081 7.91552,-5.22471 z"
     id="path1067"
     inkscape:connector-curvature="0" />
  <path
     style="fill:#67bf95;fill-opacity:1;stroke:#67bf95;stroke-width:1.11298609;stroke-miterlimit:4;stroke-dasharray:none;stroke-dashoffset:0;stroke-opacity:1"
     d="m 132.99269,382.99433 c -3.00131,-1.30775 -6.54755,-5.59135 -7.10973,-8.58801 -0.41524,-2.21341 4.2919,-33.99855 9.31576,-62.90503 l 1.10604,-6.36396 60.59261,-60.45763 c 64.77152,-64.62723 82.05158,-81.31728 84.19193,-81.31728 2.40624,0 8.49758,5.56834 34.78311,31.79667 26.05176,25.99507 30.32612,30.73531 30.32612,33.63156 0,0.94816 -2.06372,3.93533 -5.17821,7.4953 -6.39638,7.31128 -123.83157,125.40071 -131.66672,132.40024 l -5.67662,5.07122 -30.73938,5.12336 c -31.46102,5.24364 -36.22536,5.73428 -39.94491,4.11356 z m 47.74826,-24.13932 c 7.96965,-1.37352 15.05672,-2.6708 15.74904,-2.88284 1.1316,-0.3466 1.23876,-1.25513 1.06066,-8.99319 l -0.1981,-8.60764 -12.53489,-0.19302 -12.5349,-0.19303 -0.19303,-12.53489 -0.19302,-12.5349 -8.83884,0.26665 c -4.86136,0.14666 -9.0043,0.52432 -9.20653,0.83925 -0.20223,0.31493 -1.59683,7.46613 -3.09912,15.89156 l -2.73141,15.31897 8.03732,8.06019 c 4.42054,4.4331 8.52225,8.06019 9.11494,8.06019 0.59268,0 7.59822,-1.12378 15.56788,-2.4973 z m 20.25385,-67.79396 c 6.2805,-4.7319 82.81987,-81.91977 83.35813,-84.06441 0.61628,-2.45543 -0.9992,-5.57347 -3.51152,-6.77759 -1.8271,-0.8757 -2.3424,-0.8389 -4.58975,0.32777 -1.39237,0.72283 -21.22571,19.91946 -44.0741,42.65918 -36.93213,36.75648 -41.54137,41.58482 -41.5321,43.50641 0.014,2.90014 1.40469,5.47659 3.53905,6.55652 2.39766,1.21315 2.17299,1.28599 6.81029,-2.20788 z"
     id="path1069"
     inkscape:connector-curvature="0" />
  <path
     style="fill:#67bf95;fill-opacity:1;stroke:#67bf95;stroke-width:1.11298609;stroke-miterlimit:4;stroke-dasharray:none;stroke-dashoffset:0;stroke-opacity:1"
     d="m 132.01863,382.76461 c -3.04663,-1.50074 -6.43742,-6.74849 -6.43742,-9.96286 0,-2.8895 4.86896,-35.49677 8.05881,-53.96961 l 2.27507,-13.17525 6.16949,-6.62374 c 8.08158,-8.67663 121.92271,-121.46707 130.68973,-129.48355 4.78661,-4.37684 7.29175,-6.18718 8.56175,-6.18718 1.25403,0 3.78757,1.78712 8.40337,5.92762 8.27384,7.42187 52.83443,52.32974 54.91827,55.34627 2.23328,3.23286 1.93312,5.27161 -1.40603,9.55006 -3.19664,4.09586 -136.65788,138.17903 -138.58852,139.23436 -1.07989,0.59028 -37.8786,6.94907 -54.85888,9.47958 -9.35739,1.39449 -14.76295,1.35325 -17.78564,-0.1357 z m 48.36336,-24.21138 c 6.61145,-1.14975 13.05496,-2.30288 14.31891,-2.5625 l 2.2981,-0.47205 v -8.3153 -8.31529 l -11.97818,-0.27466 c -6.588,-0.15106 -12.21568,-0.51217 -12.50597,-0.80245 -0.29028,-0.29029 -0.66958,-5.97762 -0.84288,-12.63852 l -0.31509,-12.11072 -8.51038,0.45759 c -4.68071,0.25168 -8.59741,0.54463 -8.70377,0.65099 -0.10636,0.10636 -1.4578,7.027 -3.0032,15.37919 l -2.80981,15.1858 7.88287,7.95495 c 6.57614,6.63627 8.23643,7.95482 10.01573,7.95419 1.17307,-4.1e-4 7.54222,-0.94146 14.15367,-2.09122 z m 20.54071,-67.9383 c 6.54549,-5.04981 82.25053,-81.73531 82.78242,-83.85455 1.06431,-4.24054 -3.45222,-7.87893 -7.29207,-5.87428 -2.45754,1.28299 -81.39463,79.61724 -83.95939,83.31819 -1.81477,2.61872 -1.85485,2.86052 -0.86631,5.22644 1.99415,4.77268 4.30419,5.06571 9.33535,1.1842 z"
     id="path1071"
     inkscape:connector-curvature="0" />
</svg>
